<svg xmlns="http://www.w3.org/2000/svg" xmlns:xlink="http://www.w3.org/1999/xlink" width="500" zoomAndPan="magnify" viewBox="0 0 375 374.999991" height="500" preserveAspectRatio="xMidYMid meet" version="1.0"><rect x="-37.5" width="450" fill="#ffffff" y="-37.499999" height="449.999989" fill-opacity="1"/><rect x="-37.5" width="450" fill="#ffffff" y="-37.499999" height="449.999989" fill-opacity="1"/><rect x="-37.5" width="450" fill="#ffffff" y="-37.499999" height="449.999989" fill-opacity="1"/><path fill="#2d4356" d="M 174.105469 196.429688 C 174.398438 196.429688 174.691406 196.398438 174.976562 196.34375 C 175.265625 196.285156 175.542969 196.199219 175.816406 196.089844 C 176.085938 195.976562 176.34375 195.839844 176.585938 195.675781 C 176.832031 195.511719 177.054688 195.328125 177.265625 195.121094 C 177.472656 194.914062 177.65625 194.6875 177.820312 194.445312 C 177.980469 194.199219 178.121094 193.945312 178.230469 193.671875 C 178.34375 193.402344 178.429688 193.121094 178.484375 192.835938 C 178.542969 192.546875 178.570312 192.257812 178.570312 191.964844 C 178.570312 191.671875 178.542969 191.378906 178.484375 191.09375 C 178.429688 190.804688 178.34375 190.527344 178.230469 190.253906 C 178.121094 189.984375 177.980469 189.726562 177.820312 189.484375 C 177.65625 189.242188 177.472656 189.015625 177.265625 188.808594 C 177.054688 188.601562 176.832031 188.414062 176.585938 188.253906 C 176.34375 188.089844 176.085938 187.953125 175.816406 187.839844 C 175.542969 187.726562 175.265625 187.644531 174.976562 187.585938 C 174.691406 187.527344 174.398438 187.5 174.105469 187.5 L 114.746094 187.5 C 105.632812 187.5 98.214844 179.492188 98.214844 169.644531 C 98.214844 159.628906 105.476562 151.785156 114.746094 151.785156 C 115.039062 151.785156 115.332031 151.757812 115.617188 151.699219 C 115.90625 151.644531 116.183594 151.558594 116.457031 151.445312 C 116.726562 151.332031 116.984375 151.195312 117.226562 151.035156 C 117.472656 150.871094 117.695312 150.683594 117.90625 150.476562 C 118.113281 150.269531 118.296875 150.046875 118.460938 149.800781 C 118.621094 149.558594 118.761719 149.300781 118.871094 149.03125 C 118.984375 148.757812 119.070312 148.480469 119.125 148.191406 C 119.183594 147.90625 119.210938 147.613281 119.210938 147.320312 C 119.210938 147.027344 119.183594 146.738281 119.125 146.449219 C 119.070312 146.164062 118.984375 145.882812 118.871094 145.613281 C 118.761719 145.34375 118.621094 145.085938 118.460938 144.839844 C 118.296875 144.597656 118.113281 144.371094 117.90625 144.164062 C 117.695312 143.957031 117.472656 143.773438 117.226562 143.609375 C 116.984375 143.445312 116.726562 143.308594 116.457031 143.195312 C 116.183594 143.085938 115.90625 143 115.617188 142.941406 C 115.332031 142.886719 115.039062 142.855469 114.746094 142.855469 C 100.707031 142.855469 89.285156 154.871094 89.285156 169.644531 C 89.285156 184.414062 100.707031 196.429688 114.746094 196.429688 Z M 357.144531 31.25 C 357.144531 30.808594 357.101562 30.375 357.015625 29.945312 C 356.929688 29.511719 356.800781 29.09375 356.632812 28.6875 C 356.464844 28.28125 356.257812 27.894531 356.015625 27.53125 C 355.769531 27.164062 355.492188 26.824219 355.179688 26.515625 C 354.871094 26.203125 354.53125 25.925781 354.167969 25.683594 C 353.800781 25.4375 353.414062 25.230469 353.007812 25.0625 C 352.601562 24.894531 352.183594 24.769531 351.753906 24.683594 C 351.320312 24.597656 350.886719 24.554688 350.445312 24.554688 C 350.007812 24.554688 349.570312 24.597656 349.140625 24.683594 C 348.707031 24.769531 348.289062 24.894531 347.882812 25.0625 C 347.476562 25.230469 347.089844 25.4375 346.726562 25.683594 C 346.359375 25.925781 346.023438 26.203125 345.710938 26.515625 C 345.398438 26.824219 345.121094 27.164062 344.878906 27.53125 C 344.632812 27.894531 344.429688 28.28125 344.257812 28.6875 C 344.089844 29.09375 343.964844 29.511719 343.878906 29.945312 C 343.792969 30.375 343.75 30.808594 343.75 31.25 C 343.75 31.691406 343.792969 32.125 343.878906 32.554688 C 343.964844 32.988281 344.089844 33.40625 344.257812 33.8125 C 344.429688 34.21875 344.632812 34.605469 344.878906 34.96875 C 345.121094 35.335938 345.398438 35.675781 345.710938 35.984375 C 346.023438 36.296875 346.359375 36.574219 346.726562 36.816406 C 347.089844 37.0625 347.476562 37.269531 347.882812 37.4375 C 348.289062 37.605469 348.707031 37.730469 349.140625 37.816406 C 349.570312 37.902344 350.007812 37.945312 350.445312 37.945312 C 350.886719 37.945312 351.320312 37.902344 351.753906 37.816406 C 352.183594 37.730469 352.601562 37.601562 353.007812 37.433594 C 353.414062 37.265625 353.800781 37.058594 354.164062 36.816406 C 354.53125 36.570312 354.867188 36.292969 355.179688 35.984375 C 355.492188 35.671875 355.769531 35.335938 356.011719 34.96875 C 356.257812 34.601562 356.464844 34.21875 356.632812 33.8125 C 356.800781 33.40625 356.925781 32.988281 357.011719 32.554688 C 357.097656 32.125 357.140625 31.691406 357.144531 31.25 Z M 347.097656 31.25 C 347.097656 30.804688 347.183594 30.378906 347.351562 29.96875 C 347.523438 29.558594 347.765625 29.195312 348.078125 28.882812 C 348.394531 28.570312 348.753906 28.328125 349.164062 28.15625 C 349.574219 27.988281 350.003906 27.902344 350.445312 27.902344 C 350.890625 27.902344 351.316406 27.988281 351.726562 28.15625 C 352.136719 28.328125 352.5 28.570312 352.8125 28.882812 C 353.128906 29.195312 353.371094 29.558594 353.539062 29.96875 C 353.710938 30.378906 353.792969 30.804688 353.792969 31.25 C 353.792969 31.695312 353.710938 32.121094 353.539062 32.53125 C 353.371094 32.941406 353.128906 33.304688 352.8125 33.617188 C 352.5 33.929688 352.136719 34.171875 351.726562 34.34375 C 351.316406 34.511719 350.890625 34.597656 350.445312 34.597656 C 350.003906 34.597656 349.574219 34.511719 349.164062 34.34375 C 348.753906 34.171875 348.394531 33.929688 348.078125 33.617188 C 347.765625 33.304688 347.523438 32.941406 347.355469 32.53125 C 347.183594 32.121094 347.097656 31.695312 347.097656 31.25 Z M 156.25 17.855469 C 156.691406 17.855469 157.125 17.8125 157.554688 17.726562 C 157.988281 17.644531 158.40625 17.515625 158.8125 17.347656 C 159.21875 17.179688 159.605469 16.972656 159.96875 16.730469 C 160.335938 16.484375 160.675781 16.207031 160.984375 15.894531 C 161.296875 15.585938 161.574219 15.246094 161.816406 14.882812 C 162.0625 14.515625 162.269531 14.128906 162.4375 13.722656 C 162.605469 13.316406 162.730469 12.898438 162.816406 12.46875 C 162.902344 12.035156 162.945312 11.601562 162.945312 11.160156 C 162.945312 10.722656 162.902344 10.285156 162.816406 9.855469 C 162.730469 9.421875 162.605469 9.003906 162.4375 8.597656 C 162.269531 8.191406 162.0625 7.804688 161.816406 7.441406 C 161.574219 7.074219 161.296875 6.738281 160.984375 6.425781 C 160.675781 6.113281 160.335938 5.835938 159.96875 5.59375 C 159.605469 5.347656 159.21875 5.140625 158.8125 4.972656 C 158.40625 4.804688 157.988281 4.679688 157.554688 4.59375 C 157.125 4.507812 156.691406 4.464844 156.25 4.464844 C 155.808594 4.464844 155.375 4.507812 154.945312 4.59375 C 154.511719 4.679688 154.09375 4.804688 153.6875 4.972656 C 153.28125 5.140625 152.894531 5.347656 152.53125 5.59375 C 152.164062 5.835938 151.824219 6.113281 151.515625 6.425781 C 151.203125 6.738281 150.925781 7.074219 150.683594 7.441406 C 150.4375 7.804688 150.230469 8.191406 150.0625 8.597656 C 149.894531 9.003906 149.769531 9.421875 149.683594 9.855469 C 149.597656 10.285156 149.554688 10.722656 149.554688 11.160156 C 149.554688 11.601562 149.597656 12.035156 149.683594 12.464844 C 149.769531 12.898438 149.898438 13.316406 150.066406 13.722656 C 150.234375 14.128906 150.441406 14.515625 150.683594 14.878906 C 150.929688 15.246094 151.207031 15.582031 151.515625 15.894531 C 151.828125 16.203125 152.164062 16.480469 152.53125 16.726562 C 152.898438 16.972656 153.28125 17.175781 153.6875 17.34375 C 154.09375 17.515625 154.511719 17.640625 154.945312 17.726562 C 155.375 17.8125 155.808594 17.855469 156.25 17.855469 Z M 156.25 7.8125 C 156.695312 7.8125 157.121094 7.898438 157.53125 8.066406 C 157.941406 8.238281 158.304688 8.480469 158.617188 8.792969 C 158.929688 9.105469 159.171875 9.46875 159.34375 9.878906 C 159.511719 10.289062 159.597656 10.714844 159.597656 11.160156 C 159.597656 11.605469 159.511719 12.03125 159.34375 12.441406 C 159.171875 12.851562 158.929688 13.214844 158.617188 13.527344 C 158.304688 13.84375 157.941406 14.085938 157.53125 14.253906 C 157.121094 14.425781 156.695312 14.507812 156.25 14.507812 C 155.804688 14.507812 155.378906 14.425781 154.96875 14.253906 C 154.558594 14.085938 154.195312 13.84375 153.882812 13.527344 C 153.570312 13.214844 153.328125 12.851562 153.15625 12.441406 C 152.988281 12.03125 152.902344 11.605469 152.902344 11.160156 C 152.902344 10.71875 152.988281 10.289062 153.15625 9.878906 C 153.328125 9.46875 153.570312 9.109375 153.882812 8.792969 C 154.195312 8.480469 154.558594 8.238281 154.96875 8.066406 C 155.378906 7.898438 155.804688 7.8125 156.25 7.8125 Z M 312.5 75.894531 C 312.792969 75.894531 313.082031 75.863281 313.371094 75.808594 C 313.660156 75.75 313.9375 75.664062 314.207031 75.554688 C 314.480469 75.441406 314.738281 75.304688 314.980469 75.140625 C 315.222656 74.976562 315.449219 74.792969 315.65625 74.585938 C 315.863281 74.378906 316.050781 74.152344 316.210938 73.910156 C 316.375 73.664062 316.511719 73.40625 316.625 73.136719 C 316.738281 72.867188 316.820312 72.585938 316.878906 72.300781 C 316.9375 72.011719 316.964844 71.722656 316.964844 71.429688 C 316.964844 71.136719 316.9375 70.84375 316.878906 70.558594 C 316.820312 70.269531 316.738281 69.992188 316.625 69.71875 C 316.511719 69.449219 316.375 69.191406 316.210938 68.949219 C 316.050781 68.703125 315.863281 68.480469 315.65625 68.273438 C 315.449219 68.066406 315.222656 67.878906 314.980469 67.714844 C 314.738281 67.554688 314.480469 67.417969 314.207031 67.304688 C 313.9375 67.191406 313.660156 67.105469 313.371094 67.050781 C 313.082031 66.992188 312.792969 66.964844 312.5 66.964844 C 312.207031 66.964844 311.917969 66.992188 311.628906 67.050781 C 311.339844 67.105469 311.0625 67.191406 310.792969 67.304688 C 310.519531 67.417969 310.261719 67.554688 310.019531 67.714844 C 309.777344 67.878906 309.550781 68.066406 309.34375 68.273438 C 309.136719 68.480469 308.949219 68.703125 308.789062 68.949219 C 308.625 69.191406 308.488281 69.449219 308.375 69.71875 C 308.261719 69.992188 308.179688 70.269531 308.121094 70.558594 C 308.0625 70.84375 308.035156 71.136719 308.035156 71.429688 C 308.035156 71.722656 308.066406 72.011719 308.121094 72.300781 C 308.179688 72.585938 308.265625 72.867188 308.375 73.136719 C 308.488281 73.40625 308.625 73.664062 308.789062 73.90625 C 308.953125 74.152344 309.136719 74.375 309.34375 74.585938 C 309.550781 74.792969 309.777344 74.976562 310.019531 75.140625 C 310.265625 75.300781 310.523438 75.441406 310.792969 75.550781 C 311.0625 75.664062 311.34375 75.75 311.628906 75.804688 C 311.917969 75.863281 312.207031 75.890625 312.5 75.894531 Z M 312.5 69.195312 C 312.796875 69.195312 313.082031 69.253906 313.355469 69.367188 C 313.628906 69.480469 313.867188 69.640625 314.078125 69.851562 C 314.289062 70.058594 314.449219 70.300781 314.5625 70.574219 C 314.675781 70.847656 314.730469 71.132812 314.730469 71.429688 C 314.730469 71.722656 314.675781 72.007812 314.5625 72.28125 C 314.449219 72.554688 314.289062 72.796875 314.078125 73.007812 C 313.867188 73.214844 313.628906 73.378906 313.355469 73.492188 C 313.082031 73.605469 312.796875 73.660156 312.5 73.660156 C 312.203125 73.660156 311.917969 73.605469 311.644531 73.492188 C 311.371094 73.378906 311.132812 73.214844 310.921875 73.007812 C 310.710938 72.796875 310.550781 72.554688 310.4375 72.28125 C 310.324219 72.007812 310.269531 71.722656 310.269531 71.429688 C 310.269531 71.132812 310.324219 70.847656 310.4375 70.574219 C 310.550781 70.300781 310.714844 70.058594 310.921875 69.851562 C 311.132812 69.640625 311.371094 69.480469 311.644531 69.367188 C 311.917969 69.253906 312.203125 69.195312 312.5 69.195312 Z M 229.910156 44.644531 C 230.203125 44.644531 230.492188 44.613281 230.78125 44.558594 C 231.070312 44.5 231.347656 44.414062 231.617188 44.304688 C 231.890625 44.191406 232.148438 44.054688 232.390625 43.890625 C 232.632812 43.726562 232.859375 43.542969 233.066406 43.335938 C 233.273438 43.128906 233.460938 42.902344 233.621094 42.660156 C 233.785156 42.414062 233.921875 42.15625 234.035156 41.886719 C 234.148438 41.617188 234.230469 41.335938 234.289062 41.050781 C 234.347656 40.761719 234.375 40.472656 234.375 40.179688 C 234.375 39.886719 234.347656 39.59375 234.289062 39.308594 C 234.230469 39.019531 234.148438 38.742188 234.035156 38.46875 C 233.921875 38.199219 233.785156 37.941406 233.621094 37.699219 C 233.460938 37.453125 233.273438 37.230469 233.066406 37.023438 C 232.859375 36.816406 232.632812 36.628906 232.390625 36.464844 C 232.148438 36.304688 231.890625 36.167969 231.617188 36.054688 C 231.347656 35.941406 231.070312 35.855469 230.78125 35.800781 C 230.492188 35.742188 230.203125 35.714844 229.910156 35.714844 C 229.617188 35.714844 229.328125 35.742188 229.039062 35.800781 C 228.753906 35.855469 228.472656 35.941406 228.203125 36.054688 C 227.929688 36.167969 227.675781 36.304688 227.429688 36.464844 C 227.1875 36.628906 226.960938 36.816406 226.753906 37.023438 C 226.546875 37.230469 226.363281 37.453125 226.199219 37.699219 C 226.035156 37.941406 225.898438 38.199219 225.785156 38.46875 C 225.675781 38.742188 225.589844 39.019531 225.53125 39.308594 C 225.476562 39.59375 225.445312 39.886719 225.445312 40.179688 C 225.445312 40.472656 225.476562 40.761719 225.53125 41.050781 C 225.589844 41.335938 225.675781 41.617188 225.789062 41.886719 C 225.898438 42.15625 226.039062 42.414062 226.199219 42.65625 C 226.363281 42.902344 226.546875 43.125 226.753906 43.335938 C 226.960938 43.542969 227.1875 43.726562 227.429688 43.890625 C 227.675781 44.050781 227.933594 44.191406 228.203125 44.300781 C 228.472656 44.414062 228.753906 44.5 229.039062 44.554688 C 229.328125 44.613281 229.617188 44.640625 229.910156 44.644531 Z M 229.910156 37.945312 C 230.207031 37.945312 230.492188 38.003906 230.765625 38.117188 C 231.039062 38.230469 231.28125 38.390625 231.488281 38.601562 C 231.699219 38.808594 231.859375 39.050781 231.972656 39.324219 C 232.085938 39.597656 232.144531 39.882812 232.144531 40.179688 C 232.144531 40.472656 232.085938 40.757812 231.972656 41.03125 C 231.859375 41.304688 231.699219 41.546875 231.488281 41.757812 C 231.28125 41.964844 231.039062 42.128906 230.765625 42.242188 C 230.492188 42.355469 230.207031 42.410156 229.910156 42.410156 C 229.613281 42.410156 229.328125 42.355469 229.054688 42.242188 C 228.78125 42.128906 228.542969 41.964844 228.332031 41.757812 C 228.121094 41.546875 227.960938 41.304688 227.847656 41.03125 C 227.734375 40.757812 227.679688 40.472656 227.679688 40.179688 C 227.679688 39.882812 227.734375 39.597656 227.847656 39.324219 C 227.960938 39.050781 228.125 38.808594 228.332031 38.601562 C 228.542969 38.390625 228.785156 38.230469 229.058594 38.117188 C 229.332031 38.003906 229.613281 37.945312 229.910156 37.945312 Z M 53.570312 95.980469 C 53.863281 95.980469 54.15625 95.953125 54.441406 95.894531 C 54.730469 95.839844 55.007812 95.753906 55.28125 95.640625 C 55.550781 95.53125 55.808594 95.394531 56.050781 95.230469 C 56.296875 95.066406 56.519531 94.882812 56.726562 94.675781 C 56.933594 94.46875 57.121094 94.242188 57.285156 94 C 57.445312 93.753906 57.582031 93.496094 57.695312 93.226562 C 57.808594 92.957031 57.894531 92.675781 57.949219 92.390625 C 58.007812 92.101562 58.035156 91.8125 58.035156 91.519531 C 58.035156 91.226562 58.007812 90.933594 57.949219 90.648438 C 57.894531 90.359375 57.808594 90.082031 57.695312 89.808594 C 57.582031 89.539062 57.445312 89.28125 57.285156 89.039062 C 57.121094 88.792969 56.933594 88.570312 56.726562 88.359375 C 56.519531 88.152344 56.296875 87.96875 56.050781 87.804688 C 55.808594 87.644531 55.550781 87.503906 55.28125 87.394531 C 55.007812 87.28125 54.730469 87.195312 54.441406 87.140625 C 54.15625 87.082031 53.863281 87.054688 53.570312 87.054688 C 53.277344 87.054688 52.988281 87.082031 52.699219 87.140625 C 52.414062 87.195312 52.132812 87.28125 51.863281 87.394531 C 51.59375 87.503906 51.335938 87.644531 51.089844 87.804688 C 50.847656 87.96875 50.621094 88.152344 50.414062 88.359375 C 50.207031 88.570312 50.023438 88.792969 49.859375 89.039062 C 49.695312 89.28125 49.558594 89.539062 49.445312 89.808594 C 49.335938 90.082031 49.25 90.359375 49.191406 90.648438 C 49.136719 90.933594 49.105469 91.226562 49.105469 91.519531 C 49.109375 91.8125 49.136719 92.101562 49.195312 92.386719 C 49.25 92.675781 49.335938 92.953125 49.449219 93.226562 C 49.558594 93.496094 49.699219 93.753906 49.859375 93.996094 C 50.023438 94.242188 50.207031 94.464844 50.414062 94.671875 C 50.625 94.878906 50.847656 95.066406 51.09375 95.226562 C 51.335938 95.390625 51.59375 95.527344 51.863281 95.640625 C 52.132812 95.753906 52.414062 95.839844 52.699219 95.894531 C 52.988281 95.953125 53.277344 95.980469 53.570312 95.980469 Z M 53.570312 89.285156 C 53.867188 89.285156 54.152344 89.34375 54.425781 89.457031 C 54.699219 89.570312 54.941406 89.730469 55.148438 89.941406 C 55.359375 90.148438 55.519531 90.390625 55.632812 90.664062 C 55.746094 90.9375 55.804688 91.222656 55.804688 91.519531 C 55.804688 91.8125 55.746094 92.097656 55.632812 92.371094 C 55.519531 92.644531 55.359375 92.886719 55.148438 93.097656 C 54.941406 93.304688 54.699219 93.464844 54.425781 93.582031 C 54.152344 93.691406 53.867188 93.75 53.570312 93.75 C 53.277344 93.75 52.992188 93.691406 52.71875 93.582031 C 52.445312 93.464844 52.203125 93.304688 51.992188 93.097656 C 51.785156 92.886719 51.621094 92.644531 51.507812 92.371094 C 51.394531 92.097656 51.339844 91.8125 51.339844 91.519531 C 51.339844 91.222656 51.394531 90.9375 51.511719 90.664062 C 51.625 90.390625 51.785156 90.148438 51.992188 89.941406 C 52.203125 89.730469 52.445312 89.570312 52.71875 89.457031 C 52.992188 89.34375 53.277344 89.285156 53.570312 89.285156 Z M 53.570312 89.285156 " fill-opacity="1" fill-rule="nonzero"/><path fill="#2d4356" d="M 8.929688 325.894531 C 8.929688 326.1875 8.898438 326.476562 8.84375 326.765625 C 8.785156 327.050781 8.699219 327.332031 8.589844 327.601562 C 8.476562 327.871094 8.339844 328.128906 8.175781 328.371094 C 8.011719 328.617188 7.828125 328.84375 7.621094 329.050781 C 7.414062 329.257812 7.1875 329.441406 6.945312 329.605469 C 6.699219 329.765625 6.445312 329.90625 6.171875 330.015625 C 5.902344 330.128906 5.621094 330.214844 5.335938 330.269531 C 5.046875 330.328125 4.757812 330.355469 4.464844 330.355469 C 4.171875 330.355469 3.878906 330.328125 3.59375 330.269531 C 3.304688 330.214844 3.027344 330.128906 2.757812 330.015625 C 2.484375 329.90625 2.226562 329.765625 1.984375 329.605469 C 1.742188 329.441406 1.515625 329.257812 1.308594 329.050781 C 1.101562 328.84375 0.914062 328.617188 0.753906 328.371094 C 0.589844 328.128906 0.453125 327.871094 0.339844 327.601562 C 0.226562 327.332031 0.144531 327.050781 0.0859375 326.765625 C 0.0273438 326.476562 0 326.1875 0 325.894531 C 0 325.601562 0.0273438 325.308594 0.0859375 325.023438 C 0.144531 324.734375 0.226562 324.457031 0.339844 324.183594 C 0.453125 323.914062 0.589844 323.65625 0.753906 323.414062 C 0.914062 323.167969 1.101562 322.941406 1.308594 322.734375 C 1.515625 322.527344 1.742188 322.34375 1.984375 322.179688 C 2.226562 322.019531 2.484375 321.878906 2.757812 321.769531 C 3.027344 321.65625 3.304688 321.570312 3.59375 321.515625 C 3.878906 321.457031 4.171875 321.429688 4.464844 321.429688 C 4.757812 321.429688 5.046875 321.457031 5.335938 321.515625 C 5.621094 321.570312 5.902344 321.65625 6.171875 321.769531 C 6.445312 321.878906 6.699219 322.019531 6.945312 322.179688 C 7.1875 322.34375 7.414062 322.527344 7.621094 322.734375 C 7.828125 322.941406 8.011719 323.167969 8.175781 323.414062 C 8.339844 323.65625 8.476562 323.914062 8.589844 324.183594 C 8.699219 324.457031 8.785156 324.734375 8.84375 325.023438 C 8.898438 325.308594 8.929688 325.601562 8.929688 325.894531 Z M 8.929688 325.894531 " fill-opacity="1" fill-rule="nonzero"/><path fill="#2d4356" d="M 24.554688 321.429688 L 17.855469 321.429688 C 17.5625 321.429688 17.273438 321.457031 16.984375 321.515625 C 16.699219 321.570312 16.417969 321.65625 16.148438 321.769531 C 15.878906 321.878906 15.621094 322.019531 15.375 322.179688 C 15.132812 322.34375 14.90625 322.527344 14.699219 322.734375 C 14.492188 322.941406 14.308594 323.167969 14.144531 323.414062 C 13.980469 323.65625 13.84375 323.914062 13.734375 324.183594 C 13.621094 324.457031 13.535156 324.734375 13.480469 325.023438 C 13.421875 325.308594 13.394531 325.601562 13.394531 325.894531 C 13.394531 326.1875 13.421875 326.476562 13.480469 326.765625 C 13.535156 327.050781 13.621094 327.332031 13.734375 327.601562 C 13.84375 327.871094 13.980469 328.128906 14.144531 328.371094 C 14.308594 328.617188 14.492188 328.84375 14.699219 329.050781 C 14.90625 329.257812 15.132812 329.441406 15.375 329.605469 C 15.621094 329.765625 15.878906 329.90625 16.148438 330.015625 C 16.417969 330.128906 16.699219 330.214844 16.984375 330.269531 C 17.273438 330.328125 17.5625 330.355469 17.855469 330.355469 L 24.554688 330.355469 C 24.847656 330.355469 25.136719 330.328125 25.425781 330.269531 C 25.710938 330.214844 25.992188 330.128906 26.261719 330.015625 C 26.53125 329.90625 26.789062 329.765625 27.035156 329.605469 C 27.277344 329.441406 27.503906 329.257812 27.710938 329.050781 C 27.917969 328.84375 28.101562 328.617188 28.265625 328.371094 C 28.429688 328.128906 28.566406 327.871094 28.679688 327.601562 C 28.789062 327.332031 28.875 327.050781 28.933594 326.765625 C 28.988281 326.476562 29.019531 326.1875 29.019531 325.894531 C 29.019531 325.601562 28.988281 325.308594 28.933594 325.023438 C 28.875 324.734375 28.789062 324.457031 28.679688 324.183594 C 28.566406 323.914062 28.429688 323.65625 28.265625 323.414062 C 28.101562 323.167969 27.917969 322.941406 27.710938 322.734375 C 27.503906 322.527344 27.277344 322.34375 27.035156 322.179688 C 26.789062 322.019531 26.53125 321.878906 26.261719 321.769531 C 25.992188 321.65625 25.710938 321.570312 25.425781 321.515625 C 25.136719 321.457031 24.847656 321.429688 24.554688 321.429688 Z M 357.144531 321.429688 L 350.445312 321.429688 C 350.152344 321.429688 349.863281 321.457031 349.574219 321.515625 C 349.289062 321.570312 349.007812 321.65625 348.738281 321.769531 C 348.46875 321.878906 348.210938 322.019531 347.964844 322.179688 C 347.722656 322.34375 347.496094 322.527344 347.289062 322.734375 C 347.082031 322.941406 346.898438 323.167969 346.734375 323.414062 C 346.570312 323.65625 346.433594 323.914062 346.320312 324.183594 C 346.210938 324.457031 346.125 324.734375 346.066406 325.023438 C 346.011719 325.308594 345.980469 325.601562 345.980469 325.894531 C 345.980469 326.1875 346.011719 326.476562 346.066406 326.765625 C 346.125 327.050781 346.210938 327.332031 346.320312 327.601562 C 346.433594 327.871094 346.570312 328.128906 346.734375 328.371094 C 346.898438 328.617188 347.082031 328.84375 347.289062 329.050781 C 347.496094 329.257812 347.722656 329.441406 347.964844 329.605469 C 348.210938 329.765625 348.46875 329.90625 348.738281 330.015625 C 349.007812 330.128906 349.289062 330.214844 349.574219 330.269531 C 349.863281 330.328125 350.152344 330.355469 350.445312 330.355469 L 357.144531 330.355469 C 357.4375 330.355469 357.726562 330.328125 358.015625 330.269531 C 358.300781 330.214844 358.582031 330.128906 358.851562 330.015625 C 359.121094 329.90625 359.378906 329.765625 359.621094 329.605469 C 359.867188 329.441406 360.09375 329.257812 360.300781 329.050781 C 360.507812 328.84375 360.691406 328.617188 360.855469 328.371094 C 361.015625 328.128906 361.15625 327.871094 361.265625 327.601562 C 361.378906 327.332031 361.464844 327.050781 361.519531 326.765625 C 361.578125 326.476562 361.605469 326.1875 361.605469 325.894531 C 361.605469 325.601562 361.578125 325.308594 361.519531 325.023438 C 361.464844 324.734375 361.378906 324.457031 361.265625 324.183594 C 361.15625 323.914062 361.015625 323.65625 360.855469 323.414062 C 360.691406 323.167969 360.507812 322.941406 360.300781 322.734375 C 360.09375 322.527344 359.867188 322.34375 359.621094 322.179688 C 359.378906 322.019531 359.121094 321.878906 358.851562 321.769531 C 358.582031 321.65625 358.300781 321.570312 358.015625 321.515625 C 357.726562 321.457031 357.4375 321.429688 357.144531 321.429688 Z M 357.144531 321.429688 " fill-opacity="1" fill-rule="nonzero"/><path fill="#2d4356" d="M 375 325.894531 C 375 326.1875 374.972656 326.476562 374.914062 326.765625 C 374.855469 327.050781 374.773438 327.332031 374.660156 327.601562 C 374.546875 327.871094 374.410156 328.128906 374.246094 328.371094 C 374.085938 328.617188 373.898438 328.84375 373.691406 329.050781 C 373.484375 329.257812 373.257812 329.441406 373.015625 329.605469 C 372.773438 329.765625 372.515625 329.90625 372.242188 330.015625 C 371.972656 330.128906 371.695312 330.214844 371.40625 330.269531 C 371.117188 330.328125 370.828125 330.355469 370.535156 330.355469 C 370.242188 330.355469 369.953125 330.328125 369.664062 330.269531 C 369.378906 330.214844 369.097656 330.128906 368.828125 330.015625 C 368.554688 329.90625 368.300781 329.765625 368.054688 329.605469 C 367.8125 329.441406 367.585938 329.257812 367.378906 329.050781 C 367.171875 328.84375 366.988281 328.617188 366.824219 328.371094 C 366.660156 328.128906 366.523438 327.871094 366.410156 327.601562 C 366.300781 327.332031 366.214844 327.050781 366.15625 326.765625 C 366.101562 326.476562 366.070312 326.1875 366.070312 325.894531 C 366.070312 325.601562 366.101562 325.308594 366.15625 325.023438 C 366.214844 324.734375 366.300781 324.457031 366.410156 324.183594 C 366.523438 323.914062 366.660156 323.65625 366.824219 323.414062 C 366.988281 323.167969 367.171875 322.941406 367.378906 322.734375 C 367.585938 322.527344 367.8125 322.34375 368.054688 322.179688 C 368.300781 322.019531 368.554688 321.878906 368.828125 321.769531 C 369.097656 321.65625 369.378906 321.570312 369.664062 321.515625 C 369.953125 321.457031 370.242188 321.429688 370.535156 321.429688 C 370.828125 321.429688 371.117188 321.457031 371.40625 321.515625 C 371.695312 321.570312 371.972656 321.65625 372.242188 321.769531 C 372.515625 321.878906 372.773438 322.019531 373.015625 322.179688 C 373.257812 322.34375 373.484375 322.527344 373.691406 322.734375 C 373.898438 322.941406 374.085938 323.167969 374.246094 323.414062 C 374.410156 323.65625 374.546875 323.914062 374.660156 324.183594 C 374.773438 324.457031 374.855469 324.734375 374.914062 325.023438 C 374.972656 325.308594 375 325.601562 375 325.894531 Z M 375 325.894531 " fill-opacity="1" fill-rule="nonzero"/><path fill="#2d4356" d="M 336.429688 321.429688 L 292.425781 321.429688 L 291.535156 314.730469 L 316.964844 314.730469 C 317.84375 314.730469 318.714844 314.640625 319.574219 314.46875 C 320.4375 314.292969 321.273438 314.039062 322.082031 313.703125 C 322.894531 313.363281 323.664062 312.953125 324.394531 312.460938 C 325.125 311.972656 325.800781 311.417969 326.421875 310.796875 C 327.042969 310.175781 327.597656 309.5 328.085938 308.769531 C 328.578125 308.039062 328.988281 307.269531 329.328125 306.457031 C 329.664062 305.648438 329.917969 304.8125 330.09375 303.949219 C 330.265625 303.089844 330.355469 302.21875 330.355469 301.339844 L 330.355469 258.929688 C 330.355469 258.050781 330.265625 257.179688 330.09375 256.320312 C 329.917969 255.457031 329.664062 254.621094 329.328125 253.808594 C 328.988281 253 328.578125 252.226562 328.085938 251.496094 C 327.597656 250.765625 327.042969 250.089844 326.421875 249.46875 C 325.800781 248.847656 325.125 248.292969 324.394531 247.804688 C 323.664062 247.316406 322.894531 246.902344 322.082031 246.566406 C 321.273438 246.226562 320.4375 245.972656 319.574219 245.800781 C 318.714844 245.625 317.84375 245.539062 316.964844 245.535156 L 283.480469 245.535156 L 283.480469 223.214844 L 294.714844 223.214844 C 295.882812 223.210938 297.046875 223.148438 298.210938 223.027344 C 299.371094 222.910156 300.523438 222.734375 301.667969 222.503906 C 302.8125 222.273438 303.945312 221.984375 305.058594 221.644531 C 306.175781 221.300781 307.273438 220.90625 308.351562 220.457031 C 309.429688 220.007812 310.480469 219.503906 311.511719 218.953125 C 312.539062 218.398438 313.539062 217.796875 314.507812 217.148438 C 315.476562 216.496094 316.414062 215.800781 317.316406 215.058594 C 318.214844 214.316406 319.078125 213.53125 319.902344 212.707031 C 320.730469 211.878906 321.511719 211.015625 322.25 210.113281 C 322.992188 209.207031 323.6875 208.269531 324.332031 207.300781 C 324.980469 206.328125 325.582031 205.328125 326.132812 204.300781 C 326.683594 203.269531 327.179688 202.214844 327.628906 201.136719 C 328.074219 200.058594 328.46875 198.960938 328.808594 197.84375 C 329.148438 196.726562 329.433594 195.59375 329.660156 194.449219 C 329.890625 193.304688 330.0625 192.152344 330.179688 190.988281 C 330.296875 189.828125 330.355469 188.664062 330.355469 187.496094 C 330.304688 185.585938 330.101562 183.691406 329.75 181.8125 C 329.398438 179.933594 328.902344 178.09375 328.261719 176.292969 C 327.621094 174.492188 326.839844 172.75 325.925781 171.074219 C 325.011719 169.394531 323.96875 167.796875 322.804688 166.285156 C 321.636719 164.769531 320.359375 163.355469 318.96875 162.042969 C 317.582031 160.730469 316.097656 159.53125 314.519531 158.453125 C 312.941406 157.375 311.289062 156.425781 309.5625 155.605469 C 307.835938 154.785156 306.054688 154.105469 304.222656 153.566406 C 305.445312 149.085938 306.039062 144.523438 306.007812 139.878906 C 306.015625 138.125 305.9375 136.375 305.773438 134.625 C 305.609375 132.878906 305.363281 131.144531 305.027344 129.421875 C 304.691406 127.699219 304.273438 125.996094 303.769531 124.316406 C 303.265625 122.636719 302.679688 120.984375 302.015625 119.359375 C 301.347656 117.734375 300.601562 116.148438 299.78125 114.601562 C 298.957031 113.050781 298.058594 111.542969 297.085938 110.082031 C 296.117188 108.621094 295.074219 107.210938 293.964844 105.855469 C 292.851562 104.496094 291.675781 103.195312 290.4375 101.953125 C 289.199219 100.710938 287.898438 99.535156 286.542969 98.417969 C 285.1875 97.304688 283.78125 96.261719 282.320312 95.285156 C 280.863281 94.3125 279.359375 93.410156 277.8125 92.582031 C 276.261719 91.757812 274.679688 91.007812 273.054688 90.339844 C 271.433594 89.667969 269.78125 89.082031 268.101562 88.574219 C 266.421875 88.066406 264.722656 87.644531 263 87.304688 C 261.277344 86.96875 259.542969 86.714844 257.796875 86.546875 C 256.050781 86.378906 254.300781 86.296875 252.542969 86.304688 C 245.3125 86.1875 238.382812 87.578125 231.753906 90.476562 C 231.175781 88.632812 230.519531 86.8125 229.78125 85.027344 C 229.039062 83.238281 228.222656 81.484375 227.328125 79.769531 C 226.433594 78.054688 225.464844 76.382812 224.421875 74.753906 C 223.378906 73.125 222.265625 71.542969 221.082031 70.011719 C 219.898438 68.484375 218.648438 67.007812 217.335938 65.589844 C 216.019531 64.167969 214.648438 62.808594 213.210938 61.511719 C 211.777344 60.214844 210.285156 58.984375 208.742188 57.820312 C 207.199219 56.652344 205.605469 55.558594 203.960938 54.535156 C 202.320312 53.511719 200.636719 52.5625 198.910156 51.6875 C 197.183594 50.816406 195.421875 50.019531 193.625 49.300781 C 191.832031 48.582031 190.003906 47.945312 188.152344 47.390625 C 186.296875 46.835938 184.425781 46.363281 182.527344 45.972656 C 180.632812 45.585938 178.726562 45.28125 176.804688 45.0625 C 174.882812 44.84375 172.953125 44.707031 171.019531 44.660156 C 169.085938 44.613281 167.152344 44.648438 165.222656 44.773438 C 163.289062 44.894531 161.367188 45.105469 159.457031 45.398438 C 157.542969 45.691406 155.648438 46.070312 153.769531 46.535156 C 151.890625 46.996094 150.039062 47.539062 148.207031 48.167969 C 146.375 48.792969 144.578125 49.5 142.808594 50.289062 C 141.042969 51.074219 139.3125 51.9375 137.621094 52.878906 C 135.933594 53.820312 134.285156 54.832031 132.6875 55.921875 C 131.085938 57.007812 129.535156 58.164062 128.039062 59.386719 C 126.539062 60.609375 125.097656 61.898438 123.714844 63.25 C 122.332031 64.605469 121.011719 66.015625 119.753906 67.484375 C 118.492188 68.953125 117.304688 70.476562 116.179688 72.050781 C 115.058594 73.628906 114.003906 75.25 113.027344 76.917969 C 112.046875 78.585938 111.144531 80.296875 110.316406 82.042969 C 109.488281 83.792969 108.742188 85.574219 108.074219 87.390625 C 107.402344 89.207031 106.816406 91.046875 106.3125 92.914062 C 105.804688 94.78125 105.382812 96.667969 105.046875 98.574219 C 104.707031 100.480469 104.457031 102.394531 104.289062 104.324219 C 104.121094 106.25 104.039062 108.179688 104.042969 110.117188 C 103.992188 111.785156 104.082031 113.445312 104.3125 115.101562 C 104.394531 115.597656 104.5 116.117188 104.636719 116.667969 C 104.078125 116.527344 103.515625 116.410156 102.949219 116.320312 C 101.339844 116.105469 99.726562 116.019531 98.105469 116.066406 C 96.421875 116.070312 94.742188 116.152344 93.066406 116.316406 C 91.390625 116.476562 89.726562 116.71875 88.074219 117.039062 C 86.421875 117.355469 84.789062 117.753906 83.171875 118.226562 C 81.558594 118.699219 79.96875 119.246094 78.402344 119.867188 C 76.839844 120.492188 75.308594 121.1875 73.808594 121.953125 C 72.3125 122.722656 70.851562 123.558594 69.433594 124.460938 C 68.015625 125.367188 66.640625 126.335938 65.3125 127.371094 C 63.984375 128.402344 62.707031 129.496094 61.484375 130.652344 C 60.257812 131.804688 59.089844 133.015625 57.976562 134.28125 C 56.867188 135.542969 55.816406 136.859375 54.832031 138.222656 C 53.84375 139.585938 52.921875 140.992188 52.066406 142.441406 C 51.214844 143.890625 50.429688 145.378906 49.714844 146.902344 C 49 148.425781 48.359375 149.980469 47.792969 151.566406 C 47.222656 153.152344 46.730469 154.757812 46.316406 156.390625 C 45.898438 158.019531 45.558594 159.667969 45.296875 161.332031 C 45.035156 162.992188 44.855469 164.664062 44.75 166.34375 C 44.648438 168.023438 44.621094 169.707031 44.675781 171.386719 C 44.730469 173.070312 44.867188 174.746094 45.078125 176.417969 C 45.292969 178.085938 45.582031 179.742188 45.949219 181.382812 C 46.320312 183.027344 46.765625 184.648438 47.285156 186.25 C 47.808594 187.847656 48.402344 189.421875 49.074219 190.964844 C 49.742188 192.507812 50.484375 194.019531 51.296875 195.492188 C 52.109375 196.96875 52.988281 198.402344 53.933594 199.792969 C 54.882812 201.183594 55.894531 202.527344 56.964844 203.824219 C 58.039062 205.121094 59.171875 206.363281 60.363281 207.550781 C 61.554688 208.742188 62.800781 209.871094 64.097656 210.945312 C 65.394531 212.015625 66.738281 213.027344 68.132812 213.972656 C 69.523438 214.917969 70.957031 215.796875 72.433594 216.605469 C 73.910156 217.414062 75.417969 218.15625 76.964844 218.824219 C 78.507812 219.492188 80.082031 220.085938 81.683594 220.605469 C 83.285156 221.125 84.90625 221.566406 86.546875 221.933594 C 88.191406 222.300781 89.847656 222.589844 91.519531 222.800781 L 91.519531 245.535156 L 58.035156 245.535156 C 57.15625 245.539062 56.285156 245.625 55.425781 245.800781 C 54.5625 245.972656 53.726562 246.226562 52.917969 246.566406 C 52.105469 246.902344 51.335938 247.316406 50.605469 247.804688 C 49.875 248.292969 49.199219 248.847656 48.578125 249.46875 C 47.957031 250.089844 47.402344 250.765625 46.914062 251.496094 C 46.421875 252.226562 46.011719 253 45.671875 253.808594 C 45.335938 254.621094 45.082031 255.457031 44.90625 256.320312 C 44.734375 257.179688 44.644531 258.050781 44.644531 258.929688 L 44.644531 301.339844 C 44.644531 302.21875 44.734375 303.089844 44.90625 303.949219 C 45.082031 304.8125 45.335938 305.648438 45.671875 306.457031 C 46.011719 307.269531 46.421875 308.039062 46.914062 308.769531 C 47.402344 309.5 47.957031 310.175781 48.578125 310.796875 C 49.199219 311.417969 49.875 311.972656 50.605469 312.460938 C 51.335938 312.953125 52.105469 313.363281 52.917969 313.703125 C 53.726562 314.039062 54.5625 314.292969 55.425781 314.46875 C 56.285156 314.640625 57.15625 314.730469 58.035156 314.730469 L 83.464844 314.730469 L 82.574219 321.429688 L 38.570312 321.429688 C 38.253906 321.386719 37.933594 321.378906 37.617188 321.40625 C 37.296875 321.433594 36.984375 321.492188 36.679688 321.585938 C 36.371094 321.679688 36.078125 321.804688 35.796875 321.957031 C 35.519531 322.113281 35.257812 322.296875 35.019531 322.507812 C 34.777344 322.71875 34.5625 322.953125 34.371094 323.210938 C 34.179688 323.46875 34.019531 323.742188 33.886719 324.035156 C 33.753906 324.328125 33.65625 324.628906 33.585938 324.941406 C 33.519531 325.257812 33.484375 325.574219 33.484375 325.894531 C 33.484375 326.214844 33.519531 326.53125 33.585938 326.84375 C 33.65625 327.15625 33.753906 327.457031 33.886719 327.75 C 34.019531 328.042969 34.179688 328.316406 34.371094 328.574219 C 34.5625 328.832031 34.777344 329.066406 35.019531 329.277344 C 35.257812 329.488281 35.519531 329.671875 35.796875 329.828125 C 36.078125 329.984375 36.371094 330.105469 36.679688 330.199219 C 36.984375 330.292969 37.296875 330.351562 37.617188 330.378906 C 37.933594 330.40625 38.253906 330.398438 38.570312 330.355469 L 336.429688 330.355469 C 336.746094 330.398438 337.066406 330.40625 337.382812 330.378906 C 337.703125 330.351562 338.015625 330.292969 338.320312 330.199219 C 338.628906 330.105469 338.921875 329.984375 339.203125 329.828125 C 339.480469 329.671875 339.742188 329.488281 339.980469 329.277344 C 340.222656 329.066406 340.4375 328.832031 340.628906 328.574219 C 340.820312 328.316406 340.980469 328.042969 341.113281 327.75 C 341.246094 327.457031 341.34375 327.15625 341.414062 326.84375 C 341.480469 326.53125 341.515625 326.214844 341.515625 325.894531 C 341.515625 325.574219 341.480469 325.257812 341.414062 324.941406 C 341.34375 324.628906 341.246094 324.328125 341.113281 324.035156 C 340.980469 323.742188 340.820312 323.46875 340.628906 323.210938 C 340.4375 322.953125 340.222656 322.71875 339.980469 322.507812 C 339.742188 322.296875 339.480469 322.113281 339.203125 321.957031 C 338.921875 321.804688 338.628906 321.679688 338.320312 321.585938 C 338.015625 321.492188 337.703125 321.433594 337.382812 321.40625 C 337.066406 321.378906 336.746094 321.386719 336.429688 321.429688 Z M 316.964844 305.804688 L 241.070312 305.804688 C 240.78125 305.800781 240.492188 305.769531 240.203125 305.707031 C 239.917969 305.648438 239.640625 305.5625 239.371094 305.449219 C 239.101562 305.335938 238.847656 305.195312 238.605469 305.03125 C 238.363281 304.871094 238.136719 304.683594 237.933594 304.480469 C 237.726562 304.273438 237.539062 304.046875 237.378906 303.804688 C 237.214844 303.5625 237.078125 303.308594 236.960938 303.039062 C 236.847656 302.769531 236.761719 302.492188 236.703125 302.207031 C 236.644531 301.921875 236.609375 301.632812 236.605469 301.339844 L 321.429688 301.339844 C 321.425781 301.632812 321.394531 301.921875 321.332031 302.207031 C 321.273438 302.492188 321.1875 302.769531 321.074219 303.039062 C 320.960938 303.308594 320.820312 303.5625 320.65625 303.804688 C 320.496094 304.046875 320.308594 304.273438 320.105469 304.480469 C 319.898438 304.683594 319.671875 304.871094 319.429688 305.03125 C 319.1875 305.195312 318.933594 305.335938 318.664062 305.449219 C 318.394531 305.5625 318.117188 305.648438 317.832031 305.707031 C 317.546875 305.769531 317.257812 305.800781 316.964844 305.804688 Z M 316.964844 254.464844 C 317.257812 254.46875 317.546875 254.5 317.832031 254.558594 C 318.117188 254.621094 318.394531 254.707031 318.664062 254.820312 C 318.933594 254.933594 319.1875 255.070312 319.429688 255.234375 C 319.671875 255.398438 319.898438 255.582031 320.105469 255.789062 C 320.308594 255.996094 320.496094 256.21875 320.65625 256.460938 C 320.820312 256.703125 320.960938 256.960938 321.074219 257.230469 C 321.1875 257.5 321.273438 257.777344 321.332031 258.0625 C 321.394531 258.347656 321.425781 258.636719 321.429688 258.929688 L 321.429688 292.410156 L 236.605469 292.410156 L 236.605469 258.929688 C 236.609375 258.636719 236.644531 258.347656 236.703125 258.0625 C 236.761719 257.777344 236.847656 257.5 236.960938 257.230469 C 237.078125 256.960938 237.214844 256.703125 237.378906 256.460938 C 237.539062 256.21875 237.726562 255.996094 237.933594 255.789062 C 238.136719 255.582031 238.363281 255.398438 238.605469 255.234375 C 238.847656 255.070312 239.101562 254.933594 239.371094 254.820312 C 239.640625 254.707031 239.917969 254.621094 240.203125 254.558594 C 240.492188 254.5 240.78125 254.46875 241.070312 254.464844 Z M 53.570312 169.644531 C 53.554688 168.179688 53.609375 166.714844 53.738281 165.257812 C 53.863281 163.796875 54.066406 162.347656 54.335938 160.910156 C 54.609375 159.46875 54.953125 158.046875 55.367188 156.644531 C 55.78125 155.238281 56.261719 153.855469 56.8125 152.5 C 57.367188 151.144531 57.984375 149.816406 58.667969 148.519531 C 59.351562 147.226562 60.097656 145.96875 60.90625 144.746094 C 61.714844 143.523438 62.582031 142.347656 63.507812 141.210938 C 64.433594 140.078125 65.414062 138.992188 66.449219 137.953125 C 67.484375 136.917969 68.566406 135.933594 69.699219 135.003906 C 70.832031 134.074219 72.007812 133.207031 73.226562 132.394531 C 74.445312 131.582031 75.703125 130.832031 76.996094 130.144531 C 78.289062 129.457031 79.613281 128.835938 80.96875 128.28125 C 82.324219 127.726562 83.707031 127.242188 85.109375 126.824219 C 86.511719 126.40625 87.933594 126.058594 89.375 125.785156 C 90.8125 125.507812 92.261719 125.304688 93.71875 125.171875 C 95.179688 125.039062 96.640625 124.980469 98.105469 124.996094 C 99.269531 124.957031 100.429688 125.007812 101.585938 125.144531 C 101.824219 125.179688 102.121094 125.242188 102.472656 125.332031 L 116.832031 128.917969 L 113.308594 114.542969 C 113.238281 114.257812 113.179688 113.972656 113.128906 113.679688 C 112.984375 112.496094 112.929688 111.308594 112.972656 110.117188 C 112.96875 108.445312 113.039062 106.777344 113.183594 105.113281 C 113.328125 103.449219 113.546875 101.796875 113.835938 100.152344 C 114.128906 98.507812 114.492188 96.878906 114.929688 95.265625 C 115.363281 93.652344 115.871094 92.0625 116.449219 90.496094 C 117.023438 88.929688 117.671875 87.390625 118.382812 85.882812 C 119.097656 84.371094 119.878906 82.894531 120.722656 81.453125 C 121.566406 80.015625 122.472656 78.613281 123.445312 77.253906 C 124.414062 75.894531 125.441406 74.578125 126.527344 73.308594 C 127.613281 72.039062 128.753906 70.820312 129.945312 69.652344 C 131.140625 68.488281 132.382812 67.375 133.675781 66.316406 C 134.96875 65.257812 136.308594 64.261719 137.6875 63.324219 C 139.070312 62.382812 140.492188 61.507812 141.949219 60.695312 C 143.410156 59.882812 144.902344 59.136719 146.429688 58.457031 C 147.953125 57.777344 149.507812 57.167969 151.085938 56.625 C 152.667969 56.085938 154.265625 55.613281 155.890625 55.214844 C 157.511719 54.8125 159.148438 54.488281 160.796875 54.230469 C 162.449219 53.976562 164.105469 53.796875 165.773438 53.691406 C 167.441406 53.582031 169.109375 53.550781 170.777344 53.589844 C 172.449219 53.632812 174.113281 53.746094 175.773438 53.9375 C 177.433594 54.125 179.078125 54.386719 180.714844 54.722656 C 182.351562 55.058594 183.96875 55.464844 185.570312 55.945312 C 187.171875 56.421875 188.746094 56.972656 190.296875 57.589844 C 191.847656 58.210938 193.371094 58.894531 194.859375 59.652344 C 196.351562 60.40625 197.804688 61.222656 199.222656 62.105469 C 200.640625 62.988281 202.015625 63.933594 203.347656 64.9375 C 204.683594 65.945312 205.96875 67.007812 207.207031 68.125 C 208.449219 69.246094 209.636719 70.417969 210.769531 71.644531 C 211.90625 72.867188 212.984375 74.140625 214.007812 75.460938 C 215.03125 76.78125 215.992188 78.148438 216.890625 79.554688 C 217.792969 80.960938 218.628906 82.402344 219.402344 83.882812 C 220.175781 85.363281 220.882812 86.875 221.519531 88.417969 C 222.160156 89.960938 222.726562 91.53125 223.226562 93.125 L 224.011719 95.648438 C 223.953125 96.074219 223.957031 96.5 224.023438 96.925781 C 224.726562 101.066406 225.324219 112.980469 219.71875 118.332031 C 219.503906 118.535156 219.308594 118.753906 219.136719 118.996094 C 218.964844 119.234375 218.820312 119.488281 218.699219 119.757812 C 218.578125 120.027344 218.484375 120.304688 218.417969 120.59375 C 218.351562 120.878906 218.3125 121.171875 218.304688 121.464844 C 218.296875 121.761719 218.316406 122.054688 218.367188 122.34375 C 218.417969 122.636719 218.496094 122.917969 218.601562 123.195312 C 218.707031 123.46875 218.835938 123.730469 218.996094 123.980469 C 219.152344 124.230469 219.332031 124.460938 219.539062 124.675781 C 219.742188 124.890625 219.964844 125.082031 220.207031 125.25 C 220.445312 125.417969 220.703125 125.5625 220.972656 125.679688 C 221.242188 125.800781 221.523438 125.890625 221.808594 125.953125 C 222.097656 126.015625 222.390625 126.050781 222.683594 126.058594 C 222.980469 126.0625 223.273438 126.039062 223.5625 125.988281 C 223.851562 125.933594 224.136719 125.851562 224.410156 125.746094 C 224.683594 125.636719 224.945312 125.5 225.191406 125.339844 C 225.441406 125.179688 225.671875 125 225.882812 124.792969 C 233.292969 117.714844 233.671875 105.882812 233.269531 99.601562 L 235.460938 98.601562 C 240.910156 96.238281 246.605469 95.117188 252.542969 95.230469 C 254.007812 95.21875 255.472656 95.277344 256.929688 95.410156 C 258.386719 95.539062 259.835938 95.746094 261.277344 96.019531 C 262.714844 96.296875 264.136719 96.644531 265.539062 97.0625 C 266.941406 97.476562 268.324219 97.964844 269.679688 98.519531 C 271.035156 99.074219 272.359375 99.695312 273.652344 100.382812 C 274.945312 101.070312 276.203125 101.820312 277.421875 102.632812 C 278.640625 103.441406 279.816406 104.3125 280.949219 105.242188 C 282.082031 106.171875 283.164062 107.15625 284.199219 108.191406 C 285.234375 109.230469 286.214844 110.316406 287.140625 111.449219 C 288.066406 112.585938 288.933594 113.761719 289.742188 114.984375 C 290.550781 116.203125 291.296875 117.464844 291.980469 118.757812 C 292.664062 120.054688 293.28125 121.378906 293.832031 122.738281 C 294.382812 124.09375 294.867188 125.476562 295.28125 126.878906 C 295.695312 128.285156 296.039062 129.707031 296.308594 131.144531 C 296.582031 132.585938 296.78125 134.035156 296.910156 135.492188 C 297.039062 136.953125 297.09375 138.414062 297.074219 139.878906 C 297.113281 143.6875 296.632812 147.429688 295.636719 151.105469 L 293.164062 159.738281 L 301.808594 162.164062 C 303.1875 162.566406 304.523438 163.078125 305.820312 163.691406 C 307.117188 164.308594 308.359375 165.023438 309.546875 165.832031 C 310.730469 166.644531 311.84375 167.542969 312.886719 168.53125 C 313.929688 169.515625 314.890625 170.578125 315.765625 171.714844 C 316.644531 172.855469 317.425781 174.054688 318.109375 175.316406 C 318.796875 176.578125 319.382812 177.882812 319.863281 179.238281 C 320.34375 180.589844 320.714844 181.972656 320.976562 183.386719 C 321.238281 184.796875 321.390625 186.21875 321.429688 187.65625 C 321.421875 188.527344 321.375 189.398438 321.285156 190.265625 C 321.195312 191.132812 321.0625 191.996094 320.890625 192.851562 C 320.714844 193.707031 320.5 194.550781 320.242188 195.382812 C 319.988281 196.21875 319.691406 197.039062 319.351562 197.84375 C 319.015625 198.648438 318.640625 199.433594 318.226562 200.203125 C 317.8125 200.96875 317.363281 201.714844 316.878906 202.441406 C 316.390625 203.164062 315.871094 203.863281 315.316406 204.535156 C 314.761719 205.210938 314.171875 205.855469 313.554688 206.472656 C 312.9375 207.085938 312.292969 207.671875 311.617188 208.222656 C 310.941406 208.777344 310.242188 209.296875 309.515625 209.78125 C 308.789062 210.265625 308.042969 210.710938 307.273438 211.125 C 306.503906 211.535156 305.714844 211.90625 304.910156 212.242188 C 304.101562 212.578125 303.28125 212.871094 302.449219 213.125 C 301.613281 213.378906 300.769531 213.589844 299.914062 213.761719 C 299.058594 213.933594 298.195312 214.0625 297.328125 214.152344 C 296.460938 214.238281 295.589844 214.285156 294.714844 214.285156 L 98.105469 214.285156 C 96.640625 214.300781 95.179688 214.242188 93.71875 214.109375 C 92.261719 213.976562 90.8125 213.773438 89.375 213.5 C 87.933594 213.222656 86.515625 212.875 85.109375 212.457031 C 83.707031 212.039062 82.328125 211.554688 80.972656 211 C 79.617188 210.445312 78.289062 209.824219 76.996094 209.136719 C 75.703125 208.449219 74.445312 207.703125 73.226562 206.890625 C 72.007812 206.078125 70.832031 205.207031 69.699219 204.277344 C 68.570312 203.347656 67.484375 202.367188 66.449219 201.328125 C 65.417969 200.292969 64.4375 199.207031 63.507812 198.070312 C 62.582031 196.9375 61.714844 195.757812 60.90625 194.539062 C 60.097656 193.316406 59.351562 192.058594 58.667969 190.761719 C 57.984375 189.46875 57.367188 188.140625 56.816406 186.785156 C 56.261719 185.429688 55.78125 184.046875 55.367188 182.640625 C 54.953125 181.238281 54.609375 179.816406 54.335938 178.375 C 54.066406 176.9375 53.863281 175.488281 53.738281 174.027344 C 53.609375 172.570312 53.554688 171.109375 53.570312 169.644531 Z M 53.570312 258.929688 C 53.574219 258.636719 53.605469 258.347656 53.667969 258.0625 C 53.726562 257.777344 53.8125 257.5 53.925781 257.230469 C 54.039062 256.960938 54.179688 256.703125 54.34375 256.460938 C 54.503906 256.21875 54.691406 255.996094 54.894531 255.789062 C 55.101562 255.582031 55.328125 255.398438 55.570312 255.234375 C 55.8125 255.070312 56.066406 254.933594 56.335938 254.820312 C 56.605469 254.707031 56.882812 254.621094 57.167969 254.558594 C 57.453125 254.5 57.742188 254.46875 58.035156 254.464844 L 133.929688 254.464844 C 134.21875 254.46875 134.507812 254.5 134.796875 254.558594 C 135.082031 254.621094 135.359375 254.707031 135.628906 254.820312 C 135.898438 254.933594 136.152344 255.070312 136.394531 255.234375 C 136.636719 255.398438 136.863281 255.582031 137.066406 255.789062 C 137.273438 255.996094 137.460938 256.21875 137.621094 256.460938 C 137.785156 256.703125 137.921875 256.960938 138.039062 257.230469 C 138.152344 257.5 138.238281 257.777344 138.296875 258.0625 C 138.355469 258.347656 138.390625 258.636719 138.394531 258.929688 L 138.394531 292.410156 L 53.570312 292.410156 Z M 58.035156 305.804688 C 57.742188 305.800781 57.453125 305.769531 57.167969 305.707031 C 56.882812 305.648438 56.605469 305.5625 56.335938 305.449219 C 56.066406 305.335938 55.8125 305.195312 55.570312 305.03125 C 55.328125 304.871094 55.101562 304.683594 54.894531 304.480469 C 54.691406 304.273438 54.503906 304.046875 54.34375 303.804688 C 54.179688 303.5625 54.039062 303.308594 53.925781 303.039062 C 53.8125 302.769531 53.726562 302.492188 53.667969 302.207031 C 53.605469 301.921875 53.574219 301.632812 53.570312 301.339844 L 138.394531 301.339844 C 138.390625 301.632812 138.355469 301.921875 138.296875 302.207031 C 138.238281 302.492188 138.152344 302.769531 138.039062 303.039062 C 137.921875 303.308594 137.785156 303.5625 137.621094 303.804688 C 137.460938 304.046875 137.273438 304.273438 137.066406 304.480469 C 136.863281 304.683594 136.636719 304.871094 136.394531 305.03125 C 136.152344 305.195312 135.898438 305.335938 135.628906 305.449219 C 135.359375 305.5625 135.082031 305.648438 134.796875 305.707031 C 134.507812 305.769531 134.21875 305.800781 133.929688 305.804688 Z M 91.585938 321.429688 L 92.472656 314.730469 L 99.492188 314.730469 L 100.382812 321.429688 Z M 257.652344 321.429688 L 109.386719 321.429688 L 108.496094 314.730469 L 133.929688 314.730469 C 134.808594 314.730469 135.675781 314.640625 136.539062 314.46875 C 137.398438 314.292969 138.234375 314.039062 139.046875 313.703125 C 139.859375 313.363281 140.628906 312.953125 141.359375 312.460938 C 142.089844 311.972656 142.765625 311.417969 143.386719 310.796875 C 144.007812 310.175781 144.5625 309.5 145.050781 308.769531 C 145.539062 308.039062 145.953125 307.269531 146.292969 306.457031 C 146.628906 305.648438 146.882812 304.8125 147.058594 303.949219 C 147.230469 303.089844 147.320312 302.21875 147.320312 301.339844 L 147.320312 258.929688 C 147.320312 258.050781 147.230469 257.179688 147.058594 256.320312 C 146.882812 255.457031 146.628906 254.621094 146.292969 253.808594 C 145.953125 253 145.539062 252.226562 145.050781 251.496094 C 144.5625 250.765625 144.007812 250.089844 143.386719 249.46875 C 142.765625 248.847656 142.089844 248.292969 141.359375 247.804688 C 140.628906 247.316406 139.859375 246.902344 139.046875 246.566406 C 138.234375 246.226562 137.398438 245.972656 136.539062 245.800781 C 135.675781 245.625 134.808594 245.539062 133.929688 245.535156 L 100.445312 245.535156 L 100.445312 223.214844 L 274.554688 223.214844 L 274.554688 245.535156 L 241.070312 245.535156 C 240.191406 245.539062 239.324219 245.625 238.460938 245.800781 C 237.601562 245.972656 236.761719 246.226562 235.953125 246.566406 C 235.140625 246.902344 234.371094 247.316406 233.640625 247.804688 C 232.910156 248.292969 232.234375 248.847656 231.613281 249.46875 C 230.992188 250.089844 230.4375 250.765625 229.949219 251.496094 C 229.460938 252.226562 229.046875 253 228.707031 253.808594 C 228.371094 254.621094 228.117188 255.457031 227.941406 256.320312 C 227.769531 257.179688 227.679688 258.050781 227.679688 258.929688 L 227.679688 301.339844 C 227.679688 302.21875 227.769531 303.089844 227.941406 303.949219 C 228.117188 304.8125 228.371094 305.648438 228.707031 306.457031 C 229.046875 307.269531 229.460938 308.039062 229.949219 308.769531 C 230.4375 309.5 230.992188 310.175781 231.613281 310.796875 C 232.234375 311.417969 232.910156 311.972656 233.640625 312.460938 C 234.371094 312.953125 235.140625 313.363281 235.953125 313.703125 C 236.761719 314.039062 237.601562 314.292969 238.460938 314.46875 C 239.324219 314.640625 240.191406 314.730469 241.070312 314.730469 L 266.503906 314.730469 L 265.613281 321.429688 Z M 274.617188 321.429688 L 275.507812 314.730469 L 282.527344 314.730469 L 283.417969 321.429688 Z M 274.617188 321.429688 " fill-opacity="1" fill-rule="nonzero"/><path fill="#004aad" d="M 196.429688 191.964844 C 196.429688 192.257812 196.398438 192.546875 196.34375 192.835938 C 196.285156 193.121094 196.199219 193.402344 196.089844 193.671875 C 195.976562 193.945312 195.839844 194.199219 195.675781 194.445312 C 195.511719 194.6875 195.328125 194.914062 195.121094 195.121094 C 194.914062 195.328125 194.6875 195.511719 194.445312 195.675781 C 194.199219 195.839844 193.945312 195.976562 193.671875 196.089844 C 193.402344 196.199219 193.121094 196.285156 192.835938 196.34375 C 192.546875 196.398438 192.257812 196.429688 191.964844 196.429688 C 191.671875 196.429688 191.378906 196.398438 191.09375 196.34375 C 190.804688 196.285156 190.527344 196.199219 190.253906 196.089844 C 189.984375 195.976562 189.726562 195.839844 189.484375 195.675781 C 189.242188 195.511719 189.015625 195.328125 188.808594 195.121094 C 188.601562 194.914062 188.414062 194.6875 188.253906 194.445312 C 188.089844 194.199219 187.953125 193.945312 187.839844 193.671875 C 187.726562 193.402344 187.644531 193.121094 187.585938 192.835938 C 187.527344 192.546875 187.5 192.257812 187.5 191.964844 C 187.5 191.671875 187.527344 191.378906 187.585938 191.09375 C 187.644531 190.804688 187.726562 190.527344 187.839844 190.253906 C 187.953125 189.984375 188.089844 189.726562 188.253906 189.484375 C 188.414062 189.242188 188.601562 189.015625 188.808594 188.808594 C 189.015625 188.601562 189.242188 188.414062 189.484375 188.253906 C 189.726562 188.089844 189.984375 187.953125 190.253906 187.839844 C 190.527344 187.726562 190.804688 187.644531 191.09375 187.585938 C 191.378906 187.527344 191.671875 187.5 191.964844 187.5 C 192.257812 187.5 192.546875 187.527344 192.835938 187.585938 C 193.121094 187.644531 193.402344 187.726562 193.671875 187.839844 C 193.945312 187.953125 194.199219 188.089844 194.445312 188.253906 C 194.6875 188.414062 194.914062 188.601562 195.121094 188.808594 C 195.328125 189.015625 195.511719 189.242188 195.675781 189.484375 C 195.839844 189.726562 195.976562 189.984375 196.089844 190.253906 C 196.199219 190.527344 196.285156 190.804688 196.34375 191.09375 C 196.398438 191.378906 196.429688 191.671875 196.429688 191.964844 Z M 196.429688 191.964844 " fill-opacity="1" fill-rule="nonzero"/><path fill="#004aad" d="M 28.085938 154.042969 L 31.40625 149.679688 L 29.308594 148.492188 L 27.179688 153.378906 L 27.109375 153.378906 L 24.945312 148.523438 L 22.8125 149.746094 L 26.097656 154.007812 L 26.097656 154.078125 L 20.960938 153.414062 L 20.960938 155.789062 L 26.132812 155.128906 L 26.132812 155.195312 L 22.8125 159.457031 L 24.804688 160.714844 L 27.074219 155.789062 L 27.144531 155.789062 L 29.238281 160.679688 L 31.441406 159.421875 L 28.085938 155.230469 L 28.085938 155.160156 L 33.359375 155.789062 L 33.359375 153.414062 L 28.085938 154.113281 Z M 60.894531 30.734375 L 62.804688 28.222656 L 61.601562 27.539062 L 60.371094 30.351562 L 60.332031 30.351562 L 59.085938 27.554688 L 57.855469 28.261719 L 59.75 30.714844 L 59.75 30.753906 L 56.792969 30.371094 L 56.792969 31.742188 L 59.769531 31.359375 L 59.769531 31.398438 L 57.855469 33.851562 L 59.003906 34.574219 L 60.3125 31.742188 L 60.351562 31.742188 L 61.558594 34.554688 L 62.824219 33.832031 L 60.894531 31.417969 L 60.894531 31.378906 L 63.929688 31.742188 L 63.929688 30.371094 L 60.894531 30.773438 Z M 287.238281 31.128906 L 290.496094 26.847656 L 288.441406 25.683594 L 286.351562 30.476562 L 286.277344 30.476562 L 284.15625 25.714844 L 282.066406 26.917969 L 285.285156 31.097656 L 285.285156 31.164062 L 280.25 30.511719 L 280.25 32.839844 L 285.320312 32.191406 L 285.320312 32.261719 L 282.066406 36.441406 L 284.019531 37.675781 L 286.246094 32.839844 L 286.3125 32.839844 L 288.367188 37.636719 L 290.527344 36.40625 L 287.238281 32.292969 L 287.238281 32.226562 L 292.410156 32.839844 L 292.410156 30.511719 L 287.238281 31.199219 Z M 324.648438 125.554688 L 324.648438 123.542969 L 320.183594 124.132812 L 320.183594 124.074219 L 322.992188 120.382812 L 321.222656 119.378906 L 319.417969 123.511719 L 319.359375 123.511719 L 317.527344 119.40625 L 315.722656 120.441406 L 318.503906 124.046875 L 318.503906 124.105469 L 314.15625 123.542969 L 314.15625 125.554688 L 318.53125 124.992188 L 318.53125 125.050781 L 315.722656 128.65625 L 317.40625 129.722656 L 319.332031 125.554688 L 319.386719 125.554688 L 321.160156 129.691406 L 323.023438 128.628906 L 320.183594 125.082031 L 320.183594 125.019531 Z M 263.738281 341.519531 L 245.191406 341.519531 C 244.628906 341.5625 244.09375 341.707031 243.585938 341.953125 C 243.078125 342.195312 242.632812 342.527344 242.25 342.941406 C 241.867188 343.355469 241.574219 343.824219 241.367188 344.347656 C 241.164062 344.875 241.058594 345.417969 241.058594 345.980469 C 241.058594 346.546875 241.164062 347.089844 241.367188 347.617188 C 241.574219 348.140625 241.867188 348.609375 242.25 349.023438 C 242.632812 349.4375 243.078125 349.765625 243.585938 350.011719 C 244.09375 350.257812 244.628906 350.402344 245.191406 350.445312 L 263.738281 350.445312 C 264.296875 350.402344 264.832031 350.257812 265.339844 350.011719 C 265.847656 349.765625 266.292969 349.4375 266.675781 349.023438 C 267.058594 348.609375 267.355469 348.140625 267.558594 347.617188 C 267.765625 347.089844 267.867188 346.546875 267.867188 345.980469 C 267.867188 345.417969 267.765625 344.875 267.558594 344.347656 C 267.355469 343.824219 267.058594 343.355469 266.675781 342.941406 C 266.292969 342.527344 265.847656 342.195312 265.339844 341.953125 C 264.832031 341.707031 264.296875 341.5625 263.738281 341.519531 Z M 129.808594 341.519531 L 111.261719 341.519531 C 110.703125 341.5625 110.167969 341.707031 109.660156 341.953125 C 109.152344 342.195312 108.707031 342.527344 108.324219 342.941406 C 107.941406 343.355469 107.644531 343.824219 107.441406 344.347656 C 107.234375 344.875 107.132812 345.417969 107.132812 345.980469 C 107.132812 346.546875 107.234375 347.089844 107.441406 347.617188 C 107.644531 348.140625 107.941406 348.609375 108.324219 349.023438 C 108.707031 349.4375 109.152344 349.765625 109.660156 350.011719 C 110.167969 350.257812 110.703125 350.402344 111.261719 350.445312 L 129.808594 350.445312 C 130.371094 350.402344 130.90625 350.257812 131.414062 350.011719 C 131.921875 349.765625 132.367188 349.4375 132.75 349.023438 C 133.132812 348.609375 133.425781 348.140625 133.632812 347.617188 C 133.835938 347.089844 133.941406 346.546875 133.941406 345.980469 C 133.941406 345.417969 133.835938 344.875 133.632812 344.347656 C 133.425781 343.824219 133.132812 343.355469 132.75 342.941406 C 132.367188 342.527344 131.921875 342.195312 131.414062 341.953125 C 130.90625 341.707031 130.371094 341.5625 129.808594 341.519531 Z M 232.144531 341.519531 L 142.855469 341.519531 C 142.5625 341.519531 142.273438 341.546875 141.984375 341.605469 C 141.699219 341.660156 141.417969 341.746094 141.148438 341.859375 C 140.878906 341.96875 140.621094 342.105469 140.375 342.269531 C 140.132812 342.433594 139.90625 342.617188 139.699219 342.824219 C 139.492188 343.03125 139.308594 343.257812 139.144531 343.5 C 138.980469 343.746094 138.84375 344.003906 138.734375 344.273438 C 138.621094 344.542969 138.535156 344.824219 138.480469 345.109375 C 138.421875 345.398438 138.394531 345.6875 138.394531 345.980469 C 138.394531 346.273438 138.421875 346.566406 138.480469 346.851562 C 138.535156 347.140625 138.621094 347.417969 138.734375 347.691406 C 138.84375 347.960938 138.980469 348.21875 139.144531 348.460938 C 139.308594 348.707031 139.492188 348.929688 139.699219 349.140625 C 139.90625 349.347656 140.132812 349.53125 140.375 349.695312 C 140.621094 349.855469 140.878906 349.996094 141.148438 350.105469 C 141.417969 350.21875 141.699219 350.304688 141.984375 350.359375 C 142.273438 350.417969 142.5625 350.445312 142.855469 350.445312 L 178.4375 350.445312 L 178.4375 354.910156 L 160.714844 354.910156 C 160.421875 354.910156 160.128906 354.9375 159.84375 354.996094 C 159.554688 355.054688 159.277344 355.136719 159.003906 355.25 C 158.734375 355.363281 158.476562 355.5 158.234375 355.664062 C 157.992188 355.824219 157.765625 356.011719 157.558594 356.21875 C 157.351562 356.425781 157.164062 356.652344 157.003906 356.894531 C 156.839844 357.136719 156.703125 357.394531 156.589844 357.667969 C 156.476562 357.9375 156.394531 358.214844 156.335938 358.503906 C 156.277344 358.792969 156.25 359.082031 156.25 359.375 C 156.25 359.667969 156.277344 359.957031 156.335938 360.246094 C 156.394531 360.535156 156.476562 360.8125 156.589844 361.082031 C 156.703125 361.355469 156.839844 361.613281 157.003906 361.855469 C 157.164062 362.097656 157.351562 362.324219 157.558594 362.53125 C 157.765625 362.738281 157.992188 362.925781 158.234375 363.085938 C 158.476562 363.25 158.734375 363.386719 159.003906 363.5 C 159.277344 363.613281 159.554688 363.695312 159.84375 363.753906 C 160.128906 363.8125 160.421875 363.839844 160.714844 363.839844 L 216.519531 363.839844 C 216.8125 363.839844 217.101562 363.8125 217.390625 363.753906 C 217.675781 363.695312 217.957031 363.613281 218.226562 363.5 C 218.496094 363.386719 218.753906 363.25 219 363.085938 C 219.242188 362.925781 219.46875 362.738281 219.675781 362.53125 C 219.882812 362.324219 220.066406 362.097656 220.230469 361.855469 C 220.394531 361.613281 220.53125 361.355469 220.640625 361.082031 C 220.753906 360.8125 220.839844 360.535156 220.894531 360.246094 C 220.953125 359.957031 220.980469 359.667969 220.980469 359.375 C 220.980469 359.082031 220.953125 358.792969 220.894531 358.503906 C 220.839844 358.214844 220.753906 357.9375 220.640625 357.667969 C 220.53125 357.394531 220.394531 357.136719 220.230469 356.894531 C 220.066406 356.652344 219.882812 356.425781 219.675781 356.21875 C 219.46875 356.011719 219.242188 355.824219 219 355.664062 C 218.753906 355.5 218.496094 355.363281 218.226562 355.25 C 217.957031 355.136719 217.675781 355.054688 217.390625 354.996094 C 217.101562 354.9375 216.8125 354.910156 216.519531 354.910156 L 196.5625 354.910156 L 196.5625 350.445312 L 232.144531 350.445312 C 232.4375 350.445312 232.726562 350.417969 233.015625 350.359375 C 233.300781 350.304688 233.582031 350.21875 233.851562 350.105469 C 234.121094 349.996094 234.378906 349.855469 234.625 349.695312 C 234.867188 349.53125 235.09375 349.347656 235.300781 349.140625 C 235.507812 348.929688 235.691406 348.707031 235.855469 348.460938 C 236.015625 348.21875 236.15625 347.960938 236.265625 347.691406 C 236.378906 347.417969 236.464844 347.140625 236.519531 346.851562 C 236.578125 346.566406 236.605469 346.273438 236.605469 345.980469 C 236.605469 345.6875 236.578125 345.398438 236.519531 345.109375 C 236.464844 344.824219 236.378906 344.542969 236.265625 344.273438 C 236.15625 344.003906 236.015625 343.746094 235.855469 343.5 C 235.691406 343.257812 235.507812 343.03125 235.300781 342.824219 C 235.09375 342.617188 234.867188 342.433594 234.621094 342.269531 C 234.378906 342.105469 234.121094 341.96875 233.851562 341.859375 C 233.582031 341.746094 233.300781 341.660156 233.015625 341.605469 C 232.726562 341.546875 232.4375 341.519531 232.144531 341.519531 Z M 232.144531 341.519531 " fill-opacity="1" fill-rule="nonzero"/></svg>